<svg xmlns="http://www.w3.org/2000/svg" width="130" height="37" fill="none"><g clip-path="url(#a)"><path fill="#0F69B4" d="M123.68 14.558h.058V4.665c0-.748-.422-1.204-1.175-1.204h-1.84V.816H130V3.46h-1.806c-.752 0-1.17.456-1.17 1.204v16.097h-6.087l-8.374-14.83h-.058v10.98c0 .748.422 1.2 1.175 1.2h1.835v2.65h-9.311v-2.65h1.84c.752 0 1.17-.452 1.17-1.2V4.666c0-.748-.418-1.204-1.17-1.204h-1.869V.816h9.699l7.801 13.742h.005Zm-32.714-2.796h4.078L93.17 5.296h-.063l-2.141 6.466ZM97.32.816l4.743 15.038c.602 1.83 1.02 2.253 2.078 2.253h.742v2.65H94.175v-2.65h.907c.903 0 1.656-.122 1.656-.452 0-.296-.03-.626-.15-1.077l-.636-2.165h-5.855l-.364 1.204c-.335 1.053-.456 1.504-.456 1.927 0 .475 1.053.568 1.869.568h.873v2.65h-8.85v-2.65h1.02c1.059 0 1.48-.423 2.078-2.253L91.301.82h6.02V.816ZM74.374 9.505h2.587c2.112 0 3.524-1.14 3.524-3.005 0-1.864-1.354-3.039-3.038-3.039h-3.073v6.044Zm-5.67-4.845c0-.747-.418-1.204-1.17-1.204h-1.869V.816h12.621c4.947 0 7.864 1.534 7.864 5.655s-2.917 5.684-8.466 5.684h-3.31v4.753c0 .747.422 1.199 1.175 1.199h2.014v2.65H65.7v-2.65h1.84c.752 0 1.17-.452 1.17-1.2V4.666l-.005-.005ZM52.918 9.505h2.587c2.111 0 3.524-1.14 3.524-3.005 0-1.864-1.35-3.039-3.039-3.039h-3.073v6.044ZM47.251 4.66c0-.747-.422-1.204-1.174-1.204h-1.87V.816h12.627c4.932 0 7.86 1.534 7.86 5.655s-2.928 5.684-8.467 5.684h-3.31v4.753c0 .747.417 1.199 1.17 1.199h2.019v2.65H44.243v-2.65h1.835c.752 0 1.174-.452 1.174-1.2V4.66Zm-3.903 6.136c0 6.655-4.305 10.772-10.936 10.772s-10.937-4.112-10.937-10.772S25.786 0 32.413 0C39.039 0 43.35 4.14 43.35 10.801m-15.335 0c0 5.369 1.383 7.917 4.398 7.917 3.014 0 4.403-2.543 4.403-7.917s-1.394-7.942-4.403-7.942c-3.01 0-4.398 2.573-4.398 7.942ZM0 8.456V.816h19.995v7.64H17.2c0-3.068-.903-4.995-4.364-4.995v13.452c0 .747.422 1.199 1.17 1.199h1.81v2.65H4.121v-2.65h1.87c.747 0 1.174-.452 1.174-1.2V3.463c-3.466 0-4.369 1.926-4.369 4.994H0Z"/><path fill="#231F20" d="M47.002 32.282 48.376 29l1.296 3.282h-2.675.005Zm6.092 2.29-3.111-7.805h-2.185l-3.296 7.918c-.15.383-.486.698-.932.698h-.238v1.224h4.165v-1.224h-.903c-.427 0-.767-.18-.592-.699l.413-.99h3.82l.393.99c.18.5-.092.7-.587.7h-.87v1.223h5.224v-1.224h-.184c-.238 0-.816-.053-1.117-.81ZM0 30.578h1.194c.044-1.258.136-2.593 2.31-2.593h.307v6.525c0 .534-.364.883-.928.883h-.985v1.214h6.194v-1.214h-.951c-.563 0-.927-.35-.927-.883v-6.525h.3c2.175 0 2.268 1.335 2.311 2.593h1.194v-3.811H0v3.81ZM16.783 35.437c-2.345 0-2.748-2.461-2.748-3.7 0-1.83.573-3.718 2.748-3.718 2.175 0 2.743 1.889 2.743 3.719 0 1.243-.398 3.699-2.743 3.699Zm0-8.81c-3.369 0-5.384 2.048-5.384 5.106 0 2.903 2.015 5.092 5.384 5.092s5.315-2.19 5.315-5.092c0-3.058-1.951-5.107-5.315-5.107ZM29.163 30.845H26.92v-2.87h2.082c.714 0 1.602.442 1.602 1.374 0 .66-.306 1.496-1.446 1.496m.747-4.083H23.12v1.214h.699c.563 0 .796.238.796.772v5.869c0 .534-.233.771-.796.771h-.762v1.214h5.869v-1.214H27.71c-.563 0-.796-.237-.796-.771v-2.462h3.092c1.709 0 3.107-1.136 3.107-2.606 0-1.845-1.495-2.787-3.209-2.787ZM38.073 27.98h2.087c.714 0 1.602.442 1.602 1.374 0 .66-.305 1.495-1.446 1.495h-2.243v-2.868Zm3.092 4.18c1.704 0 3.102-1.136 3.102-2.607 0-1.844-1.495-2.786-3.209-2.786h-6.786v1.214h.7c.562 0 .795.237.795.771v5.87c0 .533-.233.771-.796.771h-.762v1.214h5.869v-1.214h-1.209c-.563 0-.796-.238-.796-.772v-2.46h3.092ZM62.932 27.98h.903c.563 0 .796.238.796.768v4.869l-5.01-6.855h-3.99v1.214h.7c.563 0 .796.238.796.772v5.869c0 .534-.238.771-.797.771h-.767v1.214h4.651v-1.214h-.908c-.563 0-.796-.237-.796-.771v-5.253l5.218 7.233h2.229v-7.85c0-.533.233-.766.796-.766h.456v-1.219h-4.286v1.219h.01ZM116.447 26.791v1.2h.65c.418 0 .777.232.777.689v4.136c0 1.893-1.044 2.48-2.316 2.48-1.495 0-2.141-.879-2.141-2.427v-4.184c0-.481.321-.69.753-.69h.801v-1.199h-5.141v1.2h.456c.282 0 .704.13.704.689v3.747c0 1.64-.019 4.175 4.296 4.175 2.146 0 4.039-.646 4.039-3.903v-4.02c0-.378.18-.689.612-.689h.534v-1.199h-4.024v-.005ZM125.551 30.325c-1.335-.194-2.446-.378-2.446-1.218 0-.495.451-1.092 1.922-1.092 1.617 0 2.995.825 3.117 2.189h1.208V26.79h-1.058l-.325.898c-.811-.84-1.981-1.034-2.835-1.034-1.816 0-3.981.71-3.981 3.083 0 2.374 2.432 2.645 4.398 2.942 1.326.199 2.437.364 2.437 1.47 0 .505-.641 1.136-2.174 1.136-1.84 0-3.175-1.155-3.175-2.257h-1.156v3.35h.923l.364-.694c.592.412 1.704.922 3.179.922 1.699 0 4.005-.602 4.005-3.194 0-2.296-2.437-2.801-4.398-3.088M108.822 35.393c-.568 0-.898-.257-1.393-.786l-3.009-3.432 2.567-2.622c.428-.402.792-.543 1.345-.543h.432V26.8h-4.553v1.209h.233c.743 0 .844.315.471.645l-1.442 1.437-1.325-1.51c-.243-.29-.093-.567.32-.567h.447v-1.21h-5.423v1.21h.631c.563 0 .894.262 1.287.733l2.524 2.878-3.058 3.039c-.48.452-.957.733-1.524.733v1.209h4.684v-1.209h-.67c-.709 0-.723-.354-.505-.583l2.039-2.082 1.641 1.874c.272.33.044.796-.413.796h-.694v1.209h5.714v-1.21h-.326v-.009ZM80.99 26.791v1.214h.907c.563 0 .796.233.796.767v4.854l-5.015-6.835h-3.995v1.214h.7c.562 0 .8.238.8.772v5.85c0 .533-.238.766-.8.766h-.763v1.214h4.66v-1.214h-.907c-.564 0-.797-.238-.797-.767v-5.238l5.224 7.214h2.233v-7.825c0-.534.233-.767.796-.767h.456v-1.214h-4.291l-.005-.005ZM96.465 30.607v-3.835H86.24v1.213h.714c.398 0 .747.18.747.719v6.024c0 .389-.281.66-.68.66h-.776v1.214h10.209v-4h-1.2V33.8c0 .845-.698 1.587-2.096 1.587h-3.102v-3.024h1.199c.64 0 1.097.53 1.097 1.476h1.034v-4.36h-1.034c0 .942-.456 1.49-1.097 1.49h-1.2v-2.985h3.117c1.398 0 2.097.748 2.097 1.588v1.034h1.2-.005Z"/></g><defs><clipPath id="a"><path fill="#fff" d="M0 0h130v36.825H0z"/></clipPath></defs></svg>
